<?xml version="1.0" encoding="utf-8"?>
<!-- Generator: Adobe Illustrator 23.0.5, SVG Export Plug-In . SVG Version: 6.00 Build 0)  -->
<svg version="1.1" id="PRINT" xmlns="http://www.w3.org/2000/svg" xmlns:xlink="http://www.w3.org/1999/xlink" x="0px" y="0px"
	 viewBox="0 0 710.11 864.55" style="enable-background:new 0 0 710.11 864.55;" xml:space="preserve">
<style type="text/css">
	.st0{fill:#808285;}
	.st1{fill-rule:evenodd;clip-rule:evenodd;fill:#3D0B84;}
	.st2{fill-rule:evenodd;clip-rule:evenodd;fill:#4AB0EA;}
	.st3{fill:#EDE926;}
</style>
<g>
	<path class="st0" d="M601.64,383.1L601.64,383.1C601.64,383.09,601.62,383.09,601.64,383.1z"/>
</g>
<path class="st1" d="M506.7,175.06c-0.74-2.66-0.85-5.66-2.59-7.3c-2.15-0.3-3.47,0.25-4.72,0.86c0.07-2.81-2.08-3.37-4.3-3.87
	c0.14-1.57-0.47-2.39-0.87-3.43c-1.14-0.72-2.86-0.86-3.44-2.15c-0.45-1.94-1.95-2.56-3.43-2.58c-2.77-0.04-3.08,2.49-4.72,3
	c-4.99-1.68-8.06,1.87-9.02,5.59c-0.83,1.76-2.69,2.94-3.45,5.59c-1.16,4.16-0.67,9.55,0.87,12.9c-3.87,5.72-10.4,8.8-15.04,13.75
	c-2.24,1.24-4.36,2.83-6.45,4.29c-8.5,5.99-18.28,11.27-26.2,17.19c-6.35,4.73-10.9,10.97-16.76,15.9
	c-5.08,0.82-9.09,4.03-13.32,6.45c-6.46,3.66-13.2,6.89-19.77,9.88c-2.45,1.11-4.53,2.4-6.88,3.44c-2.2,0.98-4.58,1.65-6.88,2.58
	c-2.29,0.92-4.63,1.87-6.87,3c-4.43,2.24-8.47,5.18-13.32,6.45c-3.07,3.81-6.91,6.83-10.74,9.88c-1.24,2.49-3.76,3.69-4.73,6.44
	c-2.61,1.26-2.78,4.95-7.31,4.3c-0.69-2.95,0.06-5.97,0.86-8.59c0.94-0.93,2-1.74,3.44-2.15c0.82-1.18,1.83-2.19,3.01-3.01
	c0.73-2.41,2.11-4.19,2.58-6.87c0.57,0.61,2.43,0.61,3,0c3-4.46,6.14-8.77,6.02-16.33c-0.85-0.13-0.85-1.11-1.66-1.28l-1.31-1.36
	l2.16,0.59l0.57-0.41l-1.26-1.4l-0.78-1.08l1.75,0.2l0.14-0.61l-1.1-1.15l2.56,0.42l-1.99-1.45l2.19,0.17l-0.67-0.89l0.98-0.33
	l0.24-0.58l1.13-0.34l-0.99-0.92l1.1-0.38l0.32-0.6l-0.82-0.8l-1.05-0.81l1.81-0.35l-2.54-0.95l2.52-0.34l-0.46-0.67l-0.46-0.66
	l-0.79-0.64l-0.52-0.61l1.55-0.59l-2.04-0.58l2.66-0.69l0.3-0.64l-2.7-0.42l2.31-0.82l-1.35-0.47l-0.12-0.59l-0.49-0.53l1.85-0.95
	l-2.01-0.24l0.53-0.73l1.2-0.93l-0.99-0.39l-2.31,0.03l2.67-1.45l-0.49-0.51l-1-0.31l0.37-0.81l-0.34-0.53l-2.1,0.23l1.66-1.4
	l-1.62,0.09l-0.59-0.37l1.49-1.46l-1.85,0.32l-0.61-0.33l1.17-1.41l0.71-1.19l-2.27,0.75l-1.19,0.11l2.19-2.32l-0.47-0.44
	l-1.55,0.43l-1.4,0.37l-0.19-0.61l-0.39-0.44l1.18-1.9l-0.59-0.31l-1.38,0.52l0.36-1.26l-1.29,0.51l-0.55-0.27l-0.75-0.03l0.59-1.67
	l-0.94,0.21l-0.41-0.44l-0.33-0.59l0.03-1.14l-0.37-0.58l-0.32-0.71l-0.73-0.01l-1.04,0.53l-1.27,1.08l0.54-2.35l-1.41,1.45
	l-0.63-0.03l0.03-1.55l-0.98,0.78l0.17-2.1l-0.69,0.03l-1.35,2.01l-0.26-1.1l-0.42-0.67l-0.22-1.57l-1.28,2.5l-0.05-2.39l-0.81,0.81
	l-0.54-0.44l-0.87,1.46l-0.33-1.91l-0.67,0.33l-0.72,0.97l-0.67,0.92l-0.37-3.44l-0.75,2.55l-0.56-1.35l-0.62-0.98l-0.64,0.03
	l-0.59,1.19l-0.68-1.05l-0.47,2.1l-0.49,1.05l-0.63-0.43l-0.97-2.64l-0.28,2.26l-0.4,1.1l-0.58,0.09l-0.6-0.03l-1.2-2.45l-0.42,0.85
	l-0.41,0.79l-0.98-1.09l0.2,2.57l-1.64-2.83l-0.21,1.27l-0.16,1.25l-0.34,0.71l-0.36,0.64l-1.27-1.31l-0.73-0.07l-0.7,0.02
	l0.61,2.37l-0.73-0.1l-0.31,0.63l-0.77-0.11l-0.68,0.06l-1.49-1.08l-0.43,0.5l-0.82-0.04l1.06,2.36l-0.75,0.03l0.39,1.36l-0.64,0.14
	l-0.78,0.02l-1.46-0.63l0.35,1.22l-1.48-0.57l0.01,0.86h-0.94l1.55,2.11l-2.4-1.17l-0.14,0.68l0.69,1.28l-0.64,0.28l-0.31,0.53
	l0.67,1.15l-1.33-0.14l-0.4,0.47l1.16,1.35l-2.05-0.44l-1.43-0.04l0.51,0.95l1.87,1.55l-2.02-0.24l-1.37,0.11l0.3,0.8l0.15,0.72
	l-0.65,0.44l-0.76,0.41l2.51,1.41l-0.1,0.58l-0.46,0.49l-2.18,0.11l-0.28,0.59l0.01,0.65l1.05,0.81l-0.3,0.57l0.76,0.71l-2.23,0.37
	l2.86,0.88l-1.24,0.51l-0.8,0.58l-0.55,0.61l0.53,0.63l-0.04,0.62l1.24,0.57l0.81,0.55l-2.81,0.8l1.69,0.48l1.1,0.47l0.12,0.58
	l-0.06,0.6l0.01,0.29c-1.3-0.05-2.61,0.74-3.29,1.66c-1.46,2.27-0.66,6.79-0.86,10.32c0.7,2.17,1.69,4.04,2.14,6.44
	c0.31,1.27,3.04,0.12,3.01,1.72c0.35,12.53-2.72,21.63-3.86,32.66c-1.93,1.24-3.62,2.68-5.59,3.87c-1.5,2.26-2.71,4.3-5.15,4.73
	c-2.71,0.47-6.15-1.21-9.03-2.58c-3.11-1.49-5.75-3.38-7.73-4.3c-0.22-2.5-2.16-3.28-3.01-5.15c-0.63-0.83-1.18-1.6-1.72-2.58
	c-0.47-0.87-0.71-2.24-1.29-3.01c-0.82-1.09-2.36-2.01-3.44-3.01c-3.66-3.39-6.72-7.36-10.31-10.31c-1.1-3.82-2.98-7.82-4.29-10.74
	c-0.06-0.14-0.76-0.26-0.86-0.43c-0.53-0.84-0.79-1.88-1.29-2.58c-0.59-0.81-1.54-1.36-2.15-2.15c-0.61-0.78-1.08-1.71-1.72-2.58
	c-3.57-4.9-3.69-11.17-7.73-16.33c-3.11-0.99-5.65-0.3-8.17-0.43c-1.18-3.95-2.25-7.84-3.87-11.61c-1.55-3.61-3.94-6.8-5.15-10.3
	c-0.88-2.54-0.94-5.22-1.72-7.74c-0.08-0.25-0.71-0.9-0.86-1.29c-0.24-0.61-0.23-1.49-0.43-2.14c-2.02-6.31-4.66-11.41-7.3-17.19
	c-2.06-4.48-3.95-9.04-5.59-13.75c-0.86-2.47-1.54-4.99-2.58-7.3c-1.05-2.34-2.58-4.31-3.01-6.88c3.82-0.49,8.18-2.01,10.75-3.01
	c2.13-0.83,2.94-1.28,4.29-2.58c1.88-1.81,3.73-3.95,3.87-6.44c0.08-1.42-0.78-2.82-1.29-4.73c-1.39-5.25-1.28-10.68-4.73-13.32
	c-1.02,0.26-3.12-0.53-3.43,0.43c-1.51-0.25-1.42,2.03-2.58,0.86c0.27-2.99-0.5-4.95-1.72-6.44c-1.32-0.84-3.32-0.99-5.59-0.86
	c-0.62,0.24-1.05,0.67-1.29,1.28c-2.23,3.22,0.62,6.16,0.42,9.89c-0.53,0.51-2.01-1.7-4.29-0.86c-2.08,2.07-3.08,5.22-4.29,8.16
	c-4.06,1.96-7.58,4.46-8.6,9.46c0.14,2.58-0.18,5.25,0,7.73c0.35,4.86,1.82,8.99,2.58,12.47c0.23,1.01,0.27,2.16,0.43,3.01
	c0.94,4.88,2.12,10.12,3,15.04c1.12,6.16,2.2,12.42,3.44,17.62c0.47,1.99,1.15,3.69,1.72,5.59c4.41,14.63,9.46,28.47,15.04,41.68
	c-0.42,1.76-2.3,3.61-2.15,5.59c0.11,1.33,1.18,2,1.72,2.58c0.89,0.96,1.16,2.11,1.72,3.01c2.91,4.66,5.12,11.52,7.74,16.33
	c0.93,1.7,2.34,4.87,3.44,6.02c0.35,0.36,0.51,0.92,0.86,1.29c0.34,0.35,0.14,0.37,0.43,0.86c4.65,7.45,9.93,14.07,12.89,20.63
	c-0.14,2.14,1,3,0.86,5.15c2.04,3.26,3.52,7.08,5.16,10.74c2.1,1.77,3.37,4.37,5.15,6.45c5.64,10.83,13.58,19.37,18.48,30.93
	c-0.48,9.89-0.65,19.88,0.44,29.23c0.72,6.28,2.15,12.3,2.58,18.48c0.92,13.31-0.04,26.11-2.15,39.54
	c-3,19.06-5.43,36.88-9.02,54.14c-1.21,5.82-3.41,11.79-3.43,18.05c2.7,2.03,6.79,2.67,11.17,3.01c-0.4,2.7,1.17,4.6,0.86,7.31
	c-0.21,1.83-1.18,3-1.72,3.87c-0.34,0.54-0.29,0.73-0.43,1.72c-0.72,5.01,1.36,9.88,0,14.18c-1.03,3.26-3.6,3.26-4.3,6.45
	c0.38,1.96-0.71,2.43-0.86,3.87c2.95,1.34,5.23-0.83,8.59-0.44c1.43,6.5,1.51,13.93,1.29,21.92c-0.1,3.64,0.21,7.92,0.43,12.03
	c0.2,3.61,0.49,9.16,1.29,11.6c0.62,1.88,2.31,2.81,2.58,4.73c0.41,4.84,2.73,9.53,3.44,14.62c0.31,2.2,0.24,4.53,0.43,6.87
	c0.56,6.7,1.58,13,2.58,19.34c0.66,4.2,1.56,8.33,2.14,12.47c0.59,4.22,0.33,8.66,2.15,12.47c5.53,1.91,13.76,1.13,21.05,1.28
	c1.28,9.65,3.68,18.56,6.02,26.64c0.72,2.5,1.46,4.94,2.15,7.32c1.07,3.65,2.31,7.09,3.43,10.74c1.48,4.81,3.04,9.76,3.87,15.04
	c-0.93,0-2.04,0.18-3.01,0.43c-0.74,0.18-2.58,0.11-2.58,1.27c1.46,4.12,2.2,8.75,3,13.78c0.38,2.31,0.81,4.77,1.29,7.31
	c0.46,2.42,1.41,5.02,1.29,7.3c-0.15,2.71-2.21,5.5-1.72,8.57c-2.37,4.66-4.79,9.26-6.88,14.21c-4.36,3.8-7.19,9.11-11.61,12.87
	c-0.24,3.04-0.62,5.96-0.43,9.47c4.89,0.87,10.32,0.8,15.9,1.27c7.72,0.69,17.99,2.71,23.2-0.83c1.08-1.81,1.44-4.3,2.15-6.47
	c4.68-4.77,13.48-5.42,17.19-11.17c0.52-5.75-1.56-9.44-0.43-14.61c5.76,3.69,12.01,6.91,16.76,11.61c2.11,4.2,4.67,7.92,7.3,11.61
	c3.45,2.68,8.15,5.86,12.46,7.31c1.68,0.54,3.66,0.79,5.59,1.3c7.35,1.81,16.64,3.65,23.21,0.43c1.86-5.93,1.39-11.82-1.28-15.04
	c-2.03-2.46-5.06-4.05-6.87-6.04c-2.8-5.68-7.54-9.98-10.76-15.48c-0.78-1.34-1.41-2.89-2.14-4.3c-2.42-4.63-4.13-9.18-6.02-14.17
	c0-1.56,0-3.15,0-4.7c-0.03-1.56-1.95-1.19-1.72-3.04c0.08-10.77,0.66-21.12,3.01-29.65c-1.34-1.08-5.4,0.54-6.01-1.26
	c3.43-17.35,8.03-33.53,10.74-51.58c10.15-1.16,18.31-4.32,22.77-11.17c0.92-3.66,0.58-7.07,0.87-10.31
	c0.18-2.15,0.61-4.23,0.85-6.44c0.78-7.26,1.36-14.84,1.3-21.92c-0.05-6.33-1.88-11.51-3.87-16.76c-2.06-5.41-3.18-10.7-4.74-15.9
	c0.87-1.28,0.25-4.05,0.43-6.01c-3.42-7.41-5.84-14.91-9.45-21.49c-0.09-0.16-0.72-0.26-0.85-0.44c-0.25-0.32-0.27-0.99-0.44-1.28
	c-2.08-3.5-3.74-7.34-4.74-11.61c1.45-1.36,2.75-3.98,3.87-5.15c0.34-0.36,0.52-0.92,0.87-1.29c0.92-0.97,1.63-2.5,1.72-3.87
	c0.18-2.98-2.3-5.28-1.72-9.02c-3.33-1.78-6.68-3.33-9.03-6.02c-2.12-2.44-3.12-5.51-4.73-8.59c-0.88-1.27-3.21-1.09-3.86-2.58
	c-1.48-7.74-4.74-15.08-8.17-20.2c-1.17-1.75-2.33-2.88-3-4.73c-1.14-10.59-1.12-23.2-0.43-32.65c0.54-7.51-0.88-14.75-0.86-21.92
	c0.02-8.4,1.12-15.84,1.72-22.78c0.69-7.97,0.2-15.23,0.86-22.77c0.54-6.26,2.86-12.57,4.3-18.91c1.38-6.11,3.38-12.28,5.15-18.05
	c3.89-12.66,7.45-25.14,7.74-39.11c3.43-2.15,6.5-4.66,9.03-7.73c11.08-6.54,21.8-14.04,32.65-20.2c0.49-0.28,1.14-0.52,1.72-0.86
	c0.54-0.31,0.83-1.02,1.28-1.28c0.58-0.33,1.17-0.12,1.73-0.43c0.58-0.34,0.81-1.05,1.28-1.28c1.43-0.73,3.67-1.12,4.28-1.73
	c1.77-1.68,4.01-1.98,5.17-3.86c0.13-2.72-1.1-4.06-0.87-6.88c1.37-1.31,4.81-2.27,6.02-3.44c0.83-0.79,1.45-1.19,2.15-1.72
	c1.41-1.06,2.78-2.19,3.87-3.01c1.1-0.84,1.72-1.49,2.57-2.15c0.45-0.34,0.83-0.88,1.3-1.29c3.63-3.23,8.14-6.87,10.74-10.3
	c1.93-2.56,4.88-5.5,6.44-7.74c0.81-1.16,1.57-1.83,2.15-2.58c0.45-0.56,0.47-1.19,0.87-1.73c2.12-2.78,4.01-5.39,6.02-8.16
	c0.89-1.24,1.66-2.4,2.13-3.44c0.07-0.14,0.76-0.28,0.87-0.43c1.84-2.66,3.4-4.21,5.59-6.44c3.87-3.94,8.1-8.27,12.02-11.6
	c0.89-0.74,1.68-1.5,2.58-2.15c0.49-0.35,1.21-0.11,1.72-0.43c0.47-0.3,0.89-0.99,1.29-1.29c0.92-0.66,1.66-1.5,2.58-2.15
	c3.6-2.53,10.07-4.28,11.17-8.16C508.74,179.69,507.42,177.69,506.7,175.06z M333.18,249.09c-0.6,0.41-0.92,1.36-0.96-0.12
	c0-0.04,0.02-0.08,0.02-0.13h0.15L333.18,249.09z M330.93,724.27c-0.66,6.4,0.56,11.46-1.29,16.31c-0.29,0.8-0.03,1.19-0.42,1.74
	c-0.53,0.76-1.9,1.7-2.58,3c-0.68,1.3-0.7,2.89-1.29,4.3c-0.53,1.27-2,2.35-1.72,3.87c-2.44-2.53-0.59-6.36-0.86-9.87
	c-0.07-0.94-0.23-2.46-0.43-3.04c-1.22-3.4-3.72-2.82-6.01-5.13c0.89-11.61-0.9-26.19,0-39.55c0.48-7.21,2.91-17.95,0-25.35
	c-0.08-1.94,2.67-1.06,2.14-3.43c-0.34-4.98-2.49-9.78-3.86-14.62c-1.36-4.79-2.2-9.66-3.44-14.61c-1.24-4.94-2.61-9.57-3.44-14.61
	c-1.63-10.06-3.01-21.42-3.87-32.66c-1.27-16.77-0.29-35.58-4.73-49.85c-0.12-0.77,0.41-0.88,0.43-0.43
	c3.08,3.07,6.78,5.53,9.88,8.59c2.92,11.08,5.68,21.14,10.75,30.08c6.05,10.67,10.34,24.09,15.47,36.53
	c-2.36,10.81-3.31,23.04-6.44,33.09c0,2.01,0,4.01,0,6.02c-0.28,2.43,1.93,2.36,2.15,4.3c-1.12,9.33,2.09,18.19,3.01,27.51
	c0.47,4.82,0.95,9.6,1.28,14.61c0.5,7.35,0.45,15.15,0.86,22.78C335.13,724.45,332.91,724.24,330.93,724.27z"/>
<g>
	<path class="st2" d="M228.19,119.99c4.36,0.93,4.57,6.07,6.06,9.59c0.77,1.83,1.82,3.16,2.52,5.05c0.71,1.85,0.71,3.95,2.03,5.56
		c4.03-1.02,6.27-3.82,9.08-6.07c1.29-2.24,1.49-5.58,4.04-6.56c1.04-1.95,4.25-4,7.07-2.52c0.8,3.03-2.17,5.5-3.53,8.07
		c-0.28,0.53-0.15,1.34-0.51,2.03c-0.59,1.15-1.46,1.93-2.02,3.03c-2.29,4.59-3.17,9.63-6.06,13.63c4.32,7.73,4.33,16.8,7.08,25.25
		c1.26,3.9,3.4,7.7,4.54,11.62c0.32,1.06,0.22,2.5,0.51,3.53c0.74,2.66,2.42,5.58,2.52,9.09c1.4,2.01,1.73,4.28,3.03,6.56
		c0.27,0.47,1.25,1.02,1.52,1.52c0.77,1.4,1.19,3.11,2.03,4.55c0.7,1.21,1.89,2.24,2.52,3.53c0.34,0.7,0.16,1.8,0.51,2.52
		c1.52,3.27,3.76,8.39,5.55,12.62c4.9,11.59,9.31,24.17,15.66,34.84c0.35,0.6,0.09,0.59,0.51,1.01c0.35,0.38,1.16,2.64,2.02,3.53
		c0.53,0.56,1.27,2.91,2.02,4.04c2.71,4.14,6.18,7.93,9.09,12.12c2.96,4.28,5.79,8.68,8.07,13.13c3.76,7.3,6.3,14.57,10.11,21.71
		c1.83,3.42,3.58,6.5,6.56,9.09c1.46,1.28,2.89,2.92,4.54,4.54c0.4,0.38,1.19,0.6,1.52,1.01c0.25,0.32,0.22,1.2,0.51,1.52
		c3.02,3.19,6.81,5.82,10.11,8.58c1.12-0.98,3.8-0.44,5.04,0c1.23-3.62-0.96-7.74,0-12.63c0.51-2.59,3.45-5.16,4.03-8.07
		c0.67-3.25,0.14-7.47,0.51-11.11c0.36-3.47,0.56-7.07,1.52-10.1c0.85-2.71,3.15-5.52,5.04-8.08c1.36-2.26,0.04-3.84,0.51-5.55
		c4.41-1.82,6.96-5.49,12.13-6.57c2.42-1.26,2.93-4.47,6.06-5.04c2.75-0.57,2.82,1.55,4.54,2.02c4.83-0.3,9.08,1.2,12.62,2.53
		c1.19,0.44,2.6,0.5,3.54,1c0.22,0.12,0.33,0.93,0.51,1.01c0.25,0.12,0.78-0.15,1.01,0c0.18,0.13,0.33,0.94,0.51,1.01
		c1.64,0.74,3.02,2.22,4.54,4.04c0.13,0.14,0.94,0.36,1.01,0.5c0.11,0.24-0.16,0.81,0,1.01c0.76,0.97,1.86,1.55,2.51,2.53
		c0.74,1.1,0.85,2.33,1.52,3.52c3.82,6.8,6.47,11.49,7.58,19.7c0.27,1.99,0,4.05,0.51,6.06c-0.42,1.28,1.05,1.02,1.52,1.52
		c0.6,0.63,0.52,1.26,1.01,2.02c0.13,0.21,0.92,0.33,0.99,0.51c0.4,0.81-0.05,2.45,1.01,3.03c0.11,3.3,0.16,6.55-1.01,8.59
		c-1.7,1.59-3.29,1.39-5.55,0.51c-1.05,5.51-4.29,8.84-6.06,13.63c1.12,4.21,4.59,7.11,7.07,10.6c0.47,0.65,0.52,1.32,1.01,2.02
		c0.13,0.18,0.94,0.34,1.01,0.51c2.23,4.95,6.87,9.37,10.6,13.63c1.59,0.27,2.66,2.03,4.05,3.04c0.47,0.34,1.1,0.13,1.52,0.5
		c0.81,0.76,2.35,2.13,3.52,3.54c0.13,0.15,0.96,0.37,1.01,0.51c0.11,0.24-0.16,0.81,0,1.01c0.34,0.42,1.18,0.58,1.52,1.01
		c0.27,0.35,0.18,1.13,0.51,1.51c1.75,2.08,3.78,3.24,4.54,5.05c0.52,1.25,0.07,2.81,0.51,4.55c0.71,2.77,2.86,5.44,3.53,8.07
		c0.47,1.79,0.22,3.91,0.51,6.06c0.56,3.98,0.99,6.26,0.51,11.1c-0.16,1.74-0.14,3.65-0.51,5.56c-0.63,3.48-2.37,6.72-3.02,10.1
		c-0.69,3.52-1.1,7.66-1.52,11.11c-0.9,7.6-0.65,15.66-1.01,24.23c-0.22,5.34-0.92,10.72-0.99,16.16c-0.25,15.9-0.22,29.62,0,45.95
		c0.04,3.98,0.43,8.41,0,12.11c-0.33,2.53-1.12,5.04-1.54,7.58c-0.98,6.24-0.99,13.92-0.99,22.22c0,7.04-0.89,14.37,1.5,19.19
		c0.69,2.2-1.19,1.82-1.5,3.03c1.77,2.78,2.57,6.4,4.03,10.1c2.22,5.61,6.29,10.36,2.53,17.67c0.18,3.9,0.09,7.48-2.03,9.08
		c-1.05,1.3-2.91,0.36-5.04,0.51c-4.83,0.33-12.66,1.3-14.64-3.03c-1.36,11.65-3.24,22.67-5.06,33.83c-0.58,3.62-0.76,7.5-1.5,11.11
		c-1.45,6.92-3.74,13.6-5.57,20.2c-3.71,13.47-6.46,27.05-11.1,39.88c-1.7,4.72-3.49,9.29-5.04,14.64
		c-4.07,13.96-5.88,31.89-6.56,50.48c-0.6,15.91-2.22,30.81-6.06,45.45c-1.79,6.8-3.71,13.41-5.57,20.21
		c-1.36,4.99-3.06,9.91-4.03,15.15c-0.33,1.77-0.2,3.62-0.51,5.57c-2.24,14.54-4.45,29.51-7.07,44.4
		c-2.66,15.15-5.12,30.66-4.54,46.46c0.13,3.4,1.23,6.47-0.51,9.58c-1.52,1.16-4.34,0.22-6.07,0c0.47,3.11,0.25,5.5,1.01,8.1
		c0.14,0.43-0.18,1.12,0,1.52c0.24,0.47,1.37,1.38,2.03,2.5c1.7,2.97,2.71,5.68,2.03,10.63c-0.18,1.27-0.31,2.75-0.51,4.01
		c-0.36,2.42-0.92,5.06-2.03,7.09c-7.09,1.16-15.33-0.9-22.72-2.02c-7.47-1.12-15.35-1.38-18.68-7.05
		c-0.8-9.18,2.34-22.13-1.52-30.3c-0.94-2.03-2.67-3.04-4.03-4.56c-1.32-1.45-3.15-2.82-3.54-5.03c-0.84-4.81,3.19-13.02,5.05-17.68
		c3.36-8.46,7.51-19.85,10.1-27.26c-3.45-0.83-5.66,0.14-8.58-0.51c-1.79-0.43-3.01-1.66-4.55-2.53c-4.57-2.57-7-4.95-10.1-9.62
		c-4.71-7.05-7.59-17.1-8.08-28.24c-0.11-2.46,0.74-5.79,0-8.61c-0.63-2.39-1.89-2.64-3.53-4.56c-0.78-0.61-1.48-1.3-2.02-1.99
		c-0.3-0.4-0.18-1.08-0.51-1.52c-0.16-0.22-0.89-0.33-1.01-0.51c-3.02-5.06-3.87-12.87-4.55-21.22c-0.67-8.32-1.06-17.1-1.51-24.23
		c-0.77-12.08-2.7-23.58-3.03-35.87c-0.24-8.39-0.08-16.92-1.01-24.73c-0.45-3.82-1.56-7.38-2.03-11.1
		c-2.86-22.62-0.91-45.17,3.04-66.15c0.16-0.87,0.24-1.59,0.51-2.52c0.72-2.67,0.17-5.86,0-9.59c-0.28-5.9,0.14-12.42-0.51-17.67
		c-0.43-3.44-1.83-6.78-2.53-10.11c-0.33-1.57-5.85-6.94-6.13-8.44c-1.1-5.76,0.35-10.53,0-18.43c-0.13-2.84,2.9-5.63,3.1-8.47
		c0.36-5.11,3.14-9.94,2.52-15.15c2.08-3.81,2.79-9,4.04-13.64c0.71-3.05-2.4-2.3-2.02-5.04c0.68-2.35,1.03-5.04,2.02-7.07
		c-0.68-2.35-3.56-2.49-4.04-5.05c3.24-11.58,8.12-21.5,9.6-34.84c0.94-1.32,1.66-2.97,2.52-4.54c1.35-2.45,2.3-4.2,3.53-7.58
		c0.43-1.16,0.63-2.01,1.01-3.04c0.76-2.09,2.07-4.1,2.52-6.06c0.61-2.59,0.24-5.57,1.01-8.07c0.91-2.92,3-4.98,4.04-7.58
		c-1.54-15.48-0.05-34.23,2.02-48.99c0.61-4.3,1.65-8.67,1.52-12.62c-0.24-7.27-4.29-13.46-3.04-20.7
		c-3.07-8.37-3.62-16.74-7.56-23.73c-0.91-1.6-2.3-2.89-3.03-4.55c-0.75-1.69-0.87-3.91-1.52-5.56
		c-3.24-8.28-8.23-15.48-12.12-23.22c-0.15-4.22-2.07-7.51-2.52-11.62c-0.85-7.66,0.99-18.26-1.01-25.75
		c-1.67-6.26-5.51-11.91-8.58-18.18c-1.39-2.84-2.79-6.06-4.04-9.08c-0.98-2.37-1.55-4.39-2.52-7.58c-0.24-0.74-0.79-1.25-1.01-2.02
		c-0.52-1.8-0.51-3.88-1.01-5.56c-0.48-1.6-1.48-3-2.02-4.54c-1.14-3.29-2.1-6.44-3.53-9.6c-1.01-2.22-2.64-4.35-3.53-6.56
		c-0.39-0.95-0.16-1.73-0.51-2.52c-0.11-0.25-0.96-0.83-1.01-1.01c-4.72-15.6-11.32-32.31-15.65-48.47
		c-1.83-6.84-3.63-13.65-6.07-20.2c-1.19-3.22-2.55-6.35-3.53-9.59c-1.84-6.12-2.56-11.96-7.07-16.15c0.01-2.2-1.55-2.82-1-5.56
		c-3.34-3.23-6.8-6.33-10.11-9.59c-1.53-1.51-2.97-3.5-4.54-5.05c-1.54-1.52-4.85-2.54-4.04-5.55c2.58-2.58,5.62,0.86,7.57,2.02
		c2.46,1.25,3.76,3.64,6.56,4.55c-0.78-2.94-3.23-4.77-5.05-7.07c-0.73-0.92-2.01-2.44-2.52-3.53c-0.65-1.38-1.56-2.19-0.51-4.04
		c4.2-0.7,6.64,3.05,9.08,5.56c2.47,2.5,4.39,6.29,8.59,6.56c2.05-0.7-0.61-3.19-1.52-4.04c-0.87-2.58-2.6-4.65-4.03-7.07
		c-1.2-2.01-3.79-4.17-2.03-7.58c2.72-1.15,5.14,1.18,6.57,3.03c0.3,0.4,0.17,1.06,0.5,1.52c0.61,0.82,1.56,1.39,2.02,2.02
		c1.14,1.54,2.21,3.63,3.54,5.05c1.26,1.34,2.35,3.72,5.04,3.03c1.2-6.08-4.1-10.03-3.53-17.17
		C226.6,120.77,226.92,119.91,228.19,119.99z M335.73,714.81c-0.63,2.5-1.72,5.24-2.01,7.58c-0.56,4.33,0.02,8.74-0.51,13.13
		c-0.25,2.06-0.76,4.01-1.01,6.06c-0.27,2.21-0.31,4.35-0.51,6.57c-0.74,7.98-2.24,16.01-3.54,24.23c-2.68,17-2.4,34.75-1.01,53.01
		c2.87,3.22,7.34,4.16,9.6,8.1c1.41,2.42,1.39,5.32,2.53,8.57c1.34-10.45,2.3-20.83,4.03-30.3c0.6-3.22,1.74-6.33,2.03-9.58
		c0.42-4.88-0.45-9.91,0-15.15c0.31-3.54,1.41-6.98,2.03-10.09c0.24-1.26,0.76-2.31,0.99-3.54c1.07-5.16,1.16-10.34,1.52-15.65
		 M336.51,723.84 M338.26,883.95c-0.16-3.18,0.07-5.97,0.51-8.57c0-5.06,0-10.09,0-15.15c0.04-0.72-0.11-1.92-0.51-1.01
		C338.48,868.62,333.38,876.94,338.26,883.95z"/>
</g>
<g>
	<path class="st3" d="M411.9,549.04c-6.58-2.4-13.13-4.88-20.66-4.28c-1.9,0.16-4.41,1.02-6.58,1.59c-3.27,0.86-6.55,1.92-8.64,2.95
		c-0.85,0.41-1.86,0.48-2.55,0.84c-0.22,0.11-0.33,0.81-0.56,0.96c-0.4,0.26-1.16,0.21-1.52,0.41c-4.2,2.27-9.02,4.17-12.35,6.21
		c-8.46-6.22-17.71-10.84-26.37-16.58c-8.61-5.71-17.45-11.52-27.96-15.18c-1.3-3.59-4.14-6.91-5.31-10.79
		c-0.7-2.27-0.9-4.97-1.53-7.57c-0.58-2.37-1.41-4.73-2.05-7.11c-1.43-5.22-2.19-10.46-3.02-15.63
		c-1.69-10.48-4.52-20.53-8.14-29.41c-1.87-1.11-2.68-3.33-4.19-4.74c-1.75-1.64-3.7-2.68-5.24-3.81
		c-3.23-2.36-7.23-3.79-10.59-6.14c-3.1,0.02-5.16-1.46-8.37-1.51c-1.66-0.03-2.71,0.52-4.03,0.75c-4.57,0.77-7.66,0.06-9.28-3.07
		c-0.61-1.8-3.55-1.55-3.75-3.72c4.59-6.83,9.48-13.34,13.73-20.57c1.85-2.78,3.35-5.96,4.54-9.5c1.02,0.26,1.72,0.43,2.07,0.51
		c-0.31-0.07-0.93-0.25-2.03-0.63c0.34-1.02,0.64-2.07,0.93-3.15c1.01,0.63,1.84,1.29,2.37,1.97c3.76,4.82,5.95,20.83,5.95,20.83
		s1.05-11.23,0.43-18.32c-0.62-7.1-4.21-11.72-4.21-11.72s5.79,6,5.96,17.83c0.14,11.83-2.71,23.82-2.71,23.82
		s8.15-20.66,9.16-36.83c0.42-6.73,0.82-18.19-3.26-30.01c-5.74-16.62-18.28-33.69-34.04-37.04c-11.79-2.49-26.11-0.95-35.49,4.94
		c-1.53,0.28-3.11,0.53-4.73,1.16c-2.14,0.84-4.58,2.8-6.19,3.61c-1.59,0.8-2.84,1.53-4.13,2.23c-5.36,2.96-10.43,5.35-16.37,6.96
		c-0.95,0.26-1.99-0.01-3.01,0.32c-0.82,0.26-1.64,1.09-2.57,1.33c-8.16,2.12-16.96,2.29-25.16,3.93c-1.89,0.38-3.62,1.21-5.59,1.65
		c-2.04,0.45-4.5,0.63-6.54,1.09c-7.88,1.77-16.05,4.1-23.76,5.51c-7.48,1.35-16.05,2.75-19.57,10.24
		c-0.16,2.31-0.42,4.58,0.06,6.98c0.24,1.19,2.21,5.67,2.61,6.15c0.75,0.89,1.21,1.84,1.83,2.6c2.62,3.17,5.07,5.79,7.43,8.93
		c1.55,2.07,3.75,5.21,4.53,7.25c0.06,0.16,0.85,0.37,0.96,0.56c1.26,2.08,2.43,4.38,3.11,6.16c0.06,0.16,0.85,0.38,0.96,0.56
		c0.38,0.62,0.51,1.42,0.87,2.05c1.44,2.49,2.96,4.64,4.08,6.73c0.14,0.25-0.17,0.72-0.06,0.99c0.06,0.18,0.86,0.34,0.96,0.55
		c0.33,0.68,0.46,1.29,0.88,2.05c1.42,2.63,3.12,5.4,4,7.72c0.06,0.16,0.86,0.37,0.97,0.56c0.32,0.53,0.51,1.49,0.87,2.04
		c0.76,1.15,1.89,1.98,2.8,3.16c3.01,3.94,5.88,8.25,9.18,12.52c3.07,3.98,7.07,7.37,10.77,11.14c1.64,1.66,3.18,3.85,5.13,5.79
		c4.79,4.8,14.03,12.49,15.86,17.42c0.39,1.03,0.06,2.32,0.28,3.51c0.68,3.67,2.44,7.32,0.81,11.01c3.24,5.91,4.75,14.22,7.06,22.86
		c0.97,3.62,2.23,7.76,2.74,12.12c0.26,2.3,0.14,4.65,0.56,7.01c0.03,0.16,0.88,0.82,0.93,1.06c0.14,0.61-0.21,1.36-0.13,1.99
		c0.68,4.84-0.82,7.7-3.15,10.77c2.75,8.4-3.06,14.47-6.19,19.54c-0.93,1.52-1.7,2.79-2.26,4.35c-0.88,2.41-0.75,5.23-1.48,7.87
		c-0.45,1.64-1.69,3.12-2.3,4.84c-1.41,4.02-2.2,7.75-3.68,11.23c-0.79,1.85-1.82,3.48-2.32,5.33c-1.16,4.25-0.52,8.63-1.29,12.88
		c-0.5,2.71-2.08,5.23-2.97,7.78c-0.98,2.79-1.56,5.7-2.5,8.32c-0.25,2.1,3.04,1.07,2.79,3.16c-0.49,2.64-2.22,3.86-2.41,6.82
		c-0.06,2.24,3.56,1.23,3.25,3.69c-2.2,6.76-5.11,12.64-8.08,17.94c-1.59,2.82-3.05,5.5-4.49,8.19c-2.56,4.74-5.26,9.85-7.38,14.49
		c-0.98,2.14-1.47,4.67-2.41,6.82c-0.33,0.77-1.27,1.54-1.63,2.4c-0.47,1.07-0.76,2.22-1.21,3.41c-2.52,6.56-4.87,12.96-7.19,19.49
		c-4.67,13.23-8.25,27.16-13.87,39c-0.89,1.89-2.35,3.51-3.32,5.28c-0.54,0.98-0.61,2.31-1.21,3.41c-0.5,0.92-1.2,2-1.67,2.88
		c-3.53,6.74-6.8,14.3-9.75,20.83c-0.95,2.09-1.71,3.89-2.85,5.8c-4.22,7.07-9.34,15.08-12.83,22.13
		c-2.66,5.32-4.18,10.39-6.44,15.52c-0.96,2.2-2.74,4.27-2.41,6.83c-1.34,2.17,1.54,3.15,1.74,4.09c0.08,0.4-0.55,1.16-0.61,1.95
		c-0.12,1.48-1.17,2.89-1.79,4.88c-1.3,4.12-2.03,7.56-3.16,10.78c-1.96,5.6-3.91,10.12-5.91,15.08c-1.35,3.33-2.82,6.62-4.09,9.69
		c-4.22,10.27-7.61,20.36-13.2,28.09c-0.96,1.34-2.3,2.42-3.23,3.8c-0.48,0.69-0.65,1.66-1.14,2.42c-1.07,1.59-1.56,2.49-2.27,4.34
		c-0.96,2.49-2.66,5.42-2.5,8.32c-5.08,5.93-7.95,14.61-10.35,22.27c-1.2,3.87-1.9,8.39-3.65,10.74c-0.45,0.61-1.16,0.79-1.58,1.41
		c-2.14,3.08-2.61,6.36-3.12,10.27c-0.3,2.24-1.12,4.81-0.43,6.94c2.05,1.7,5.04,1.92,8.32,2.5c2.94,0.54,6.27,1.16,9.37,1.59
		c6.82,0.91,13.98,2.35,18.96-0.32c1.73-6.84,1.64-12.73,3.18-19.24c1.36-5.75,5.16-10.67,5.97-16.09
		c0.58-3.83-0.13-7.48-0.29-11.46c-0.14-3.72,0.05-7.59-0.78-11.5c1.93-3.33,2.62-6.94,4.11-10.23c2.98-6.51,6.75-12.47,10.11-18.3
		c1.73-3.04,3.72-5.71,5.51-8.64c2.35-3.8,4.38-7.85,6.66-11.03c0.48-0.69,1.18-1.27,1.61-1.92c0.61-0.83,1.25-1.37,1.61-1.88
		c0.54-0.72,0.65-1.73,1.15-2.42c0.16-0.22,0.84-0.22,1.03-0.44c0.33-0.4,0.3-1.08,0.58-1.45c1.09-1.37,2.39-2.64,3.23-3.8
		c0.52-0.72,0.62-1.7,1.15-2.42c0.14-0.18,0.84-0.22,1.02-0.44c0.31-0.36,0.34-1.12,0.59-1.45c1.56-2.13,2.91-4.3,4.84-5.68
		c3.82,1.3,7.34,2.89,11.72,3.69c2.96-2.03,3.45-5.71,5.03-8.64c1.54-2.86,3.72-5.71,5.51-8.61c2.65-4.34,5.41-9.15,7.77-12.98
		c4.48-7.27,8.38-14.78,12.83-22.14c1.76-2.91,3.9-5.65,5.51-8.63c0.86-1.58,1.44-3.27,2.3-4.84c0.82-1.51,1.96-2.77,2.76-4.31
		c0.35-0.67,0.27-1.67,0.65-2.45c0.35-0.73,1.24-1.16,1.61-1.89c0.85-1.65,1.46-3.2,2.29-4.84c1.6-3.12,2.97-6.47,4.58-9.69
		c0.78-1.54,1.96-2.78,2.77-4.31c0.81-1.55,1.52-3.33,2.29-4.84c1.99-3.86,4.04-8.37,5.7-11.61c1.36-2.65,2.78-4.47,3.9-6.74
		c0.2-0.41-0.07-1.06,0.09-1.48c0.06-0.18,0.94-0.7,1.05-0.94c1.29-2.62,2.3-4.92,3.45-7.26c3.15-6.47,5.99-12.91,9.17-19.36
		c2.49-1.97,4.38-5.85,5.98-8.1c0.2-0.28,0.86-0.59,1.06-0.93c1.04-1.85,1.43-4.33,2.38-6.33c0.93-1.95,2.31-3.46,3.32-5.28
		c0.58-1.03,0.55-1.94,1.18-2.91c0.54-0.84,1.54-1.46,2.14-2.36c1.17-1.76,1.46-4.48,3.8-5.24c0.03-2.1,2.33-1.62,3.16-2.79
		c1.48-0.45,2-1.99,4.1-1.75c1.63,0.71,3.01,1.8,4.81,2.79c1.79,0.98,3.84,1.44,5.31,2.82c1.35,1.26,2.1,3.74,3.57,6.69
		c1.31,2.61,3.15,5.45,4.01,7.73c0.06,0.16,0.84,0.35,0.96,0.55c0.33,0.59,0.54,1.44,0.87,2.05c1.36,2.52,2.88,4.83,4.07,6.73
		c4.04,6.45,4.39,15.11,6,23.79c3.94,21.04,8.54,42.88,12.55,63.05c0.91,4.64,1.73,9.66,2.58,14.6c2.58,15.18,5.24,30.55,7.69,44.83
		c0.93,5.42,0.94,10.34,3.07,14.65c3.05,1.19,6.28,2.28,10.3,2.6c8.11,24.77,16.96,48.85,16.92,80.78
		c-1.76,3.29-2.35,7.34-3.18,11.24c-0.88,4.09-1.82,8.21-1.79,12.87c0.92,3.65,2.47,7.59,3.23,12.15c1.32,7.85-0.55,16.6,2.03,23.54
		c3.04,4.38,10.71,4.48,17.65,4.59c6.78,0.07,13.98-0.61,17.62-2.89c0.7-5.17-0.06-9.04,0.36-13.96c-1.2-2.89-3.37-5.39-4.44-8.71
		c-1.68-5.21-1.75-11.43-2.93-17.14c-1.18-5.71-3.13-10.63-5.04-15.26c0.86-6.11-1.13-10.92-2.5-16.09
		c-0.81-3.07-1.46-6.22-1.9-9.58c-2.78-21.04-2.39-43.17-2.9-65.95c1.27-2.82,5.45-2.31,5.86-6.11c-1.46-9.83-4.1-19.02-5.72-28.24
		c-0.84-4.81-1.61-9.62-2.09-14.61c-0.39-4.02-0.75-8.53-1.28-11.53c-0.24-1.37-0.08-2.69-0.24-4c-3.18-25.59-2.87-53-4.58-79
		c-1.18-18.07-3.77-36.02-8.32-50.84c-2.04-6.65-5.41-12.12-8.35-17.95c-3.86-7.63-7.14-15.75-13.11-21.73
		c1.08-0.7,2.88-2.32,1.74-3.88c-2.69-0.88,1.74-1.58,0.74-3.94c-3.26-7.44-3.35-17.68-3.25-28.11c-3.36-8.03-6.87-18.25-4.11-30.15
		c-1.56-2.58-1.07-6.36-1.44-9.06c-0.79-5.72,1.4-11.35,2.07-17.31c1.15-10.25,0.35-21.13,3.33-29.69c3.22,3.57,5.52,8.66,7.7,12.44
		c1.63,2.81,3.69,5.08,5,7.77c1.17,0.08,1.52,1.39,2.36,2.14c0.41,0.36,0.99,0.23,1.46,0.59c0.4,0.31,0.49,1.26,0.9,1.56
		c1.91,1.38,5.76,2.85,7.23,3.93c1.01,0.75,2.49,1.25,3.38,1.7c2.48,1.26,5.08,2.68,7.73,3.97c6.76,3.3,13.64,5.65,20.94,7.77
		c5.31,1.54,11.04,2.36,15.7,3.96c3.26,1.11,6.24,3.2,9.22,4.06c3.49,1,6.58,0.49,10.41,0.64c1.08,0.04,2.12,0.65,3.45,0.71
		c1.23,0.05,2.57-0.42,4-0.25c3.4,0.39,7.07,3.24,8.5-0.47c2.13-5.52-5.15-4.15-6.09-6.36c1.59-3.52,3.49-6.69,6.53-8.57
		c3.18-0.98,6.15-2.23,9.17-3.42c4.65,0.53,8.33,0.04,11.91,0.74c4.32,0.86,5.17-0.61,6.64-2.58
		C411.45,550.49,412.41,550.32,411.9,549.04z M195.3,377.71c-0.08,2.58,0.4,4.88,1.06,7.03c0.6,1.95,1.36,3.83,2.3,5.55
		c1.08,2.74,2.36,5.4,3.47,7.57c0.36,3.26,0.59,6.64,0.62,10.19c-1.46-2.78-5.62-11.23-6.49-19.01c-0.49-4.37-0.9-8.47-1.18-11.63
		C195.16,377.51,195.23,377.6,195.3,377.71z M200.35,392.89c0.44,0.58,0.89,1.14,1.39,1.65c0.1,0.8,0.21,1.61,0.3,2.42
		C201.46,395.67,200.87,394.28,200.35,392.89z M202.21,418.98c-3.91,6.91-8.31,13.25-13.14,19.12c-2.54,0.31-3.59,2.3-5.68,3.14
		c-1.38-0.46-2.64-0.98-4.4-1.26c-1.79-0.29-3.66-0.1-5.46-0.34c-4.43-2.9-8.9-5.05-12.94-8.27c-3.85-3.06-7.31-6.81-11.36-9.67
		c-7-14.3-17.14-25.84-28.65-36.15c11.74-4.89,24.88-10.26,37.31-15.13c0.93-0.36,2.03-0.91,3.07-1.3c2.23-0.87,4.26-1.19,6.61-2.08
		c2.6-0.98,6.16-2.39,11.07-1.81c3.48,1.25,5.19,4.94,8.05,6.97c0.47,0.33,0.96,0.62,1.46,0.89c0.76,14.04,12.09,31.45,14.62,35.17
		C202.79,411.64,202.63,415.19,202.21,418.98z"/>
	<path d="M259.54,403.66c0.19,0.04,0.27,0.06,0.27,0.06S259.72,403.7,259.54,403.66z"/>
</g>
</svg>
